# Blender 4.4.3
# www.blender.org
mtllib игрокс.mtl
o Cube
v -0.642653 3.260351 -0.596843
v -0.642653 -0.039067 -0.596843
v -0.642653 3.260351 0.596843
v -0.642653 -0.039067 0.596843
v 0.642653 3.260351 -0.596843
v 0.642653 -0.039067 -0.596843
v 0.642653 3.260351 0.596843
v 0.642653 -0.039067 0.596843
vn -0.0000 1.0000 -0.0000
vn -0.0000 -0.0000 1.0000
vn 1.0000 -0.0000 -0.0000
vn -0.0000 -1.0000 -0.0000
vn -1.0000 -0.0000 -0.0000
vn -0.0000 -0.0000 -1.0000
vt 0.625000 0.500000
vt 0.875000 0.500000
vt 0.875000 0.750000
vt 0.625000 0.750000
vt 0.375000 0.750000
vt 0.625000 1.000000
vt 0.375000 1.000000
vt 0.375000 0.000000
vt 0.625000 0.000000
vt 0.625000 0.250000
vt 0.375000 0.250000
vt 0.125000 0.500000
vt 0.375000 0.500000
vt 0.125000 0.750000
s 0
usemtl Material
f 1/1/1 3/4/1 7/3/1 5/2/1
f 4/5/2 8/7/2 7/6/2 3/4/2
f 8/8/3 6/11/3 5/10/3 7/9/3
f 6/12/4 8/14/4 4/5/4 2/13/4
f 2/13/5 4/5/5 3/4/5 1/1/5
f 6/11/6 2/13/6 1/1/6 5/10/6
o Cube.001
v -0.642653 3.260351 -0.596843
v -0.642653 -0.039067 -0.596843
v -0.642653 3.260351 0.596843
v -0.642653 -0.039067 0.596843
v 0.642653 3.260351 -0.596843
v 0.642653 -0.039067 -0.596843
v 0.642653 3.260351 0.596843
v 0.642653 -0.039067 0.596843
vn -0.0000 1.0000 -0.0000
vn -0.0000 -0.0000 1.0000
vn 1.0000 -0.0000 -0.0000
vn -0.0000 -1.0000 -0.0000
vn -1.0000 -0.0000 -0.0000
vn -0.0000 -0.0000 -1.0000
vt 0.625000 0.500000
vt 0.875000 0.500000
vt 0.875000 0.750000
vt 0.625000 0.750000
vt 0.375000 0.750000
vt 0.625000 1.000000
vt 0.375000 1.000000
vt 0.375000 0.000000
vt 0.625000 0.000000
vt 0.625000 0.250000
vt 0.375000 0.250000
vt 0.125000 0.500000
vt 0.375000 0.500000
vt 0.125000 0.750000
s 0
usemtl Material
f 9/15/7 11/18/7 15/17/7 13/16/7
f 12/19/8 16/21/8 15/20/8 11/18/8
f 16/22/9 14/25/9 13/24/9 15/23/9
f 14/26/10 16/28/10 12/19/10 10/27/10
f 10/27/11 12/19/11 11/18/11 9/15/11
f 14/25/12 10/27/12 9/15/12 13/24/12
o Cube.002
v -1.917116 3.260351 -0.596843
v -1.917116 -0.039067 -0.596843
v -1.917116 3.260351 0.596843
v -1.917116 -0.039067 0.596843
v -0.631809 3.260351 -0.596843
v -0.631809 -0.039067 -0.596843
v -0.631809 3.260351 0.596843
v -0.631809 -0.039067 0.596843
vn -0.0000 1.0000 -0.0000
vn -0.0000 -0.0000 1.0000
vn 1.0000 -0.0000 -0.0000
vn -0.0000 -1.0000 -0.0000
vn -1.0000 -0.0000 -0.0000
vn -0.0000 -0.0000 -1.0000
vt 0.625000 0.500000
vt 0.875000 0.500000
vt 0.875000 0.750000
vt 0.625000 0.750000
vt 0.375000 0.750000
vt 0.625000 1.000000
vt 0.375000 1.000000
vt 0.375000 0.000000
vt 0.625000 0.000000
vt 0.625000 0.250000
vt 0.375000 0.250000
vt 0.125000 0.500000
vt 0.375000 0.500000
vt 0.125000 0.750000
s 0
usemtl Material
f 17/29/13 19/32/13 23/31/13 21/30/13
f 20/33/14 24/35/14 23/34/14 19/32/14
f 24/36/15 22/39/15 21/38/15 23/37/15
f 22/40/16 24/42/16 20/33/16 18/41/16
f 18/41/17 20/33/17 19/32/17 17/29/17
f 22/39/18 18/41/18 17/29/18 21/38/18
o Cube.003
v -1.884446 6.579858 -0.596843
v -1.884446 3.280440 -0.596843
v -1.884446 6.579858 0.596843
v -1.884446 3.280440 0.596843
v 0.616473 6.579858 -0.596843
v 0.616473 3.280440 -0.596843
v 0.616473 6.579858 0.596843
v 0.616473 3.280440 0.596843
vn -0.0000 1.0000 -0.0000
vn -0.0000 -0.0000 1.0000
vn 1.0000 -0.0000 -0.0000
vn -0.0000 -1.0000 -0.0000
vn -1.0000 -0.0000 -0.0000
vn -0.0000 -0.0000 -1.0000
vt 0.625000 0.500000
vt 0.875000 0.500000
vt 0.875000 0.750000
vt 0.625000 0.750000
vt 0.375000 0.750000
vt 0.625000 1.000000
vt 0.375000 1.000000
vt 0.375000 0.000000
vt 0.625000 0.000000
vt 0.625000 0.250000
vt 0.375000 0.250000
vt 0.125000 0.500000
vt 0.375000 0.500000
vt 0.125000 0.750000
s 0
usemtl Material
f 25/43/19 27/46/19 31/45/19 29/44/19
f 28/47/20 32/49/20 31/48/20 27/46/20
f 32/50/21 30/53/21 29/52/21 31/51/21
f 30/54/22 32/56/22 28/47/22 26/55/22
f 26/55/23 28/47/23 27/46/23 25/43/23
f 30/53/24 26/55/24 25/43/24 29/52/24
o Cube.004
v 0.577331 6.569120 -0.595722
v 0.577331 3.269702 -0.595722
v 0.577331 6.569120 0.597964
v 0.577331 3.269702 0.597964
v 1.862638 6.569120 -0.595722
v 1.862638 3.269702 -0.595722
v 1.862638 6.569120 0.597964
v 1.862638 3.269702 0.597964
vn -0.0000 1.0000 -0.0000
vn -0.0000 -0.0000 1.0000
vn 1.0000 -0.0000 -0.0000
vn -0.0000 -1.0000 -0.0000
vn -1.0000 -0.0000 -0.0000
vn -0.0000 -0.0000 -1.0000
vt 0.625000 0.500000
vt 0.875000 0.500000
vt 0.875000 0.750000
vt 0.625000 0.750000
vt 0.375000 0.750000
vt 0.625000 1.000000
vt 0.375000 1.000000
vt 0.375000 0.000000
vt 0.625000 0.000000
vt 0.625000 0.250000
vt 0.375000 0.250000
vt 0.125000 0.500000
vt 0.375000 0.500000
vt 0.125000 0.750000
s 0
usemtl Material
f 33/57/25 35/60/25 39/59/25 37/58/25
f 36/61/26 40/63/26 39/62/26 35/60/26
f 40/64/27 38/67/27 37/66/27 39/65/27
f 38/68/28 40/70/28 36/61/28 34/69/28
f 34/69/29 36/61/29 35/60/29 33/57/29
f 38/67/30 34/69/30 33/57/30 37/66/30
o Cube.005
v -3.144722 6.569120 -0.596843
v -3.144722 3.269702 -0.596843
v -3.144722 6.569120 0.596843
v -3.144722 3.269702 0.596843
v -1.859416 6.569120 -0.596843
v -1.859416 3.269702 -0.596843
v -1.859416 6.569120 0.596843
v -1.859416 3.269702 0.596843
vn -0.0000 1.0000 -0.0000
vn -0.0000 -0.0000 1.0000
vn 1.0000 -0.0000 -0.0000
vn -0.0000 -1.0000 -0.0000
vn -1.0000 -0.0000 -0.0000
vn -0.0000 -0.0000 -1.0000
vt 0.625000 0.500000
vt 0.875000 0.500000
vt 0.875000 0.750000
vt 0.625000 0.750000
vt 0.375000 0.750000
vt 0.625000 1.000000
vt 0.375000 1.000000
vt 0.375000 0.000000
vt 0.625000 0.000000
vt 0.625000 0.250000
vt 0.375000 0.250000
vt 0.125000 0.500000
vt 0.375000 0.500000
vt 0.125000 0.750000
s 0
usemtl Material
f 41/71/31 43/74/31 47/73/31 45/72/31
f 44/75/32 48/77/32 47/76/32 43/74/32
f 48/78/33 46/81/33 45/80/33 47/79/33
f 46/82/34 48/84/34 44/75/34 42/83/34
f 42/83/35 44/75/35 43/74/35 41/71/35
f 46/81/36 42/83/36 41/71/36 45/80/36
o Куб
v -1.676124 6.556499 1.000000
v -1.676124 8.556499 1.000000
v -1.676124 6.556499 -1.000000
v -1.676124 8.556499 -1.000000
v 0.323876 6.556499 1.000000
v 0.323876 8.556499 1.000000
v 0.323876 6.556499 -1.000000
v 0.323876 8.556499 -1.000000
vn -1.0000 -0.0000 -0.0000
vn -0.0000 -0.0000 -1.0000
vn 1.0000 -0.0000 -0.0000
vn -0.0000 -0.0000 1.0000
vn -0.0000 -1.0000 -0.0000
vn -0.0000 1.0000 -0.0000
vt 0.375000 0.000000
vt 0.625000 0.000000
vt 0.625000 0.250000
vt 0.375000 0.250000
vt 0.625000 0.500000
vt 0.375000 0.500000
vt 0.625000 0.750000
vt 0.375000 0.750000
vt 0.625000 1.000000
vt 0.375000 1.000000
vt 0.125000 0.500000
vt 0.125000 0.750000
vt 0.875000 0.500000
vt 0.875000 0.750000
s 0
f 49/85/37 50/86/37 52/87/37 51/88/37
f 51/88/38 52/87/38 56/89/38 55/90/38
f 55/90/39 56/89/39 54/91/39 53/92/39
f 53/92/40 54/91/40 50/93/40 49/94/40
f 51/95/41 55/90/41 53/92/41 49/96/41
f 56/89/42 52/97/42 50/98/42 54/91/42
o Куб.001
v -0.978532 7.901194 0.911441
v -0.978532 7.767902 0.911441
v -0.978532 7.901194 1.044732
v -0.978532 7.767902 1.044732
v -1.250057 7.901194 0.911441
v -1.250057 7.767902 0.911441
v -1.250057 7.901194 1.044732
v -1.250057 7.767902 1.044732
vn 1.0000 -0.0000 -0.0000
vn -0.0000 -0.0000 1.0000
vn -1.0000 -0.0000 -0.0000
vn -0.0000 -0.0000 -1.0000
vn -0.0000 1.0000 -0.0000
vn -0.0000 -1.0000 -0.0000
vt 0.375000 0.000000
vt 0.625000 0.000000
vt 0.625000 0.250000
vt 0.375000 0.250000
vt 0.625000 0.500000
vt 0.375000 0.500000
vt 0.625000 0.750000
vt 0.375000 0.750000
vt 0.625000 1.000000
vt 0.375000 1.000000
vt 0.125000 0.500000
vt 0.125000 0.750000
vt 0.875000 0.500000
vt 0.875000 0.750000
s 0
f 57/99/43 59/102/43 60/101/43 58/100/43
f 59/102/44 63/104/44 64/103/44 60/101/44
f 63/104/45 61/106/45 62/105/45 64/103/45
f 61/106/46 57/108/46 58/107/46 62/105/46
f 59/109/47 57/110/47 61/106/47 63/104/47
f 64/103/48 62/105/48 58/112/48 60/111/48
o Куб.002
v -0.098499 7.901194 0.911441
v -0.098499 7.767902 0.911441
v -0.098499 7.901194 1.044732
v -0.098499 7.767902 1.044732
v -0.370023 7.901194 0.911441
v -0.370023 7.767902 0.911441
v -0.370023 7.901194 1.044732
v -0.370023 7.767902 1.044732
vn 1.0000 -0.0000 -0.0000
vn -0.0000 -0.0000 1.0000
vn -1.0000 -0.0000 -0.0000
vn -0.0000 -0.0000 -1.0000
vn -0.0000 1.0000 -0.0000
vn -0.0000 -1.0000 -0.0000
vt 0.375000 0.000000
vt 0.625000 0.000000
vt 0.625000 0.250000
vt 0.375000 0.250000
vt 0.625000 0.500000
vt 0.375000 0.500000
vt 0.625000 0.750000
vt 0.375000 0.750000
vt 0.625000 1.000000
vt 0.375000 1.000000
vt 0.125000 0.500000
vt 0.125000 0.750000
vt 0.875000 0.500000
vt 0.875000 0.750000
s 0
f 65/113/49 67/116/49 68/115/49 66/114/49
f 67/116/50 71/118/50 72/117/50 68/115/50
f 71/118/51 69/120/51 70/119/51 72/117/51
f 69/120/52 65/122/52 66/121/52 70/119/52
f 67/123/53 65/124/53 69/120/53 71/118/53
f 72/117/54 70/119/54 66/126/54 68/125/54
